/* XPM */
static char *webmonx[] = {
/* columns rows colors chars-per-pixel */
"32 32 257 2",
"   c #000000",
".  c #010109",
"X  c #000013",
"o  c #00001B",
"O  c #030811",
"+  c #090B15",
"@  c #0B1019",
"#  c #130A08",
"$  c #000723",
"%  c #010A23",
"&  c #000C2B",
"*  c #000E33",
"=  c #031236",
"-  c #04143C",
";  c #001F3F",
":  c #09183E",
">  c #021345",
",  c #01144B",
"<  c #091940",
"1  c #031D5B",
"2  c #091E54",
"3  c #081E58",
"4  c #051B56",
"5  c #031E61",
"6  c #001E72",
"7  c #0B225B",
"8  c #102252",
"9  c #19274A",
"0  c #022264",
"q  c #06246D",
"w  c #0C2668",
"e  c #052574",
"r  c #0B2973",
"t  c #0D2D7D",
"y  c #062679",
"u  c #172C67",
"i  c #132E73",
"p  c #102F7E",
"a  c #1C326A",
"s  c #1E3164",
"d  c #14327E",
"f  c #1B3473",
"g  c #163278",
"h  c #282F44",
"j  c #242D49",
"k  c #293B6B",
"l  c #263764",
"z  c #233B7C",
"x  c #2E3E77",
"c  c #203672",
"v  c #303E72",
"b  c #2F437F",
"n  c #374366",
"m  c #374879",
"M  c #451B0A",
"N  c #55270C",
"B  c #463033",
"V  c #682E08",
"C  c #7A3806",
"Z  c #6A3D22",
"A  c #6A4127",
"S  c #6B4E39",
"D  c #7B4A2D",
"F  c #44425E",
"G  c #594447",
"H  c #4F4C69",
"J  c #454F73",
"K  c #485175",
"L  c #4C5A7E",
"P  c #565B7E",
"I  c #684D4A",
"U  c #69667B",
"Y  c #0C2E81",
"T  c #0F3081",
"R  c #123282",
"E  c #193784",
"W  c #1D3A85",
"Q  c #223E86",
"!  c #213E89",
"~  c #25418A",
"^  c #2A458C",
"/  c #2C488D",
"(  c #2B4794",
")  c #2B4895",
"_  c #354A84",
"`  c #314887",
"'  c #334D91",
"]  c #384F94",
"[  c #324D9C",
"{  c #3E528D",
"}  c #3A5394",
"|  c #3B549B",
" . c #3F5899",
".. c #355092",
"X. c #3E58A1",
"o. c #485980",
"O. c #4C5B8D",
"+. c #415489",
"@. c #40579A",
"#. c #445B9B",
"$. c #4D5D93",
"%. c #495E9B",
"&. c #435893",
"*. c #435AA2",
"=. c #49629D",
"-. c #4B6798",
";. c #526787",
":. c #53669C",
">. c #5E6996",
",. c #5A699C",
"<. c #546290",
"1. c #59718E",
"2. c #4C63A2",
"3. c #5266A1",
"4. c #5266A9",
"5. c #5469A4",
"6. c #5569AB",
"7. c #586EA5",
"8. c #5A6DA9",
"9. c #556AB0",
"0. c #5679A0",
"q. c #5971A7",
"w. c #5D70A8",
"e. c #5276A5",
"r. c #517EB6",
"t. c #686B87",
"y. c #65739C",
"u. c #6274AB",
"i. c #6678AD",
"p. c #6A7BAD",
"a. c #6976A7",
"s. c #6375B4",
"d. c #6B7CB2",
"f. c #6A7BBA",
"g. c #6375B8",
"h. c #707CB0",
"j. c #7885A7",
"k. c #7282B3",
"l. c #7887B7",
"z. c #788AB6",
"x. c #7D8CBA",
"c. c #7687B7",
"v. c #6291CA",
"b. c #6898D0",
"n. c #7785C0",
"m. c #7987C2",
"M. c #7C89C2",
"N. c #7CA9D7",
"B. c #7CA4D1",
"V. c #6BB7F2",
"C. c #7ACCFB",
"Z. c #77C6F6",
"A. c #7DD0FB",
"S. c #A7753C",
"D. c #D27E18",
"F. c #D58019",
"G. c #D88219",
"H. c #CA9640",
"J. c #D3AE5F",
"K. c #CDAB61",
"L. c #E2B056",
"P. c #FED774",
"I. c #FED973",
"U. c #808AAF",
"Y. c #848DA6",
"T. c #808EBC",
"R. c #848EB1",
"E. c #8595BD",
"W. c #8994B3",
"Q. c #889BBD",
"!. c #8693B5",
"~. c #919BB3",
"^. c #95A1BD",
"/. c #A2A8BC",
"(. c #818DC4",
"). c #8691C5",
"_. c #8591C9",
"`. c #8892C6",
"'. c #8B95C8",
"]. c #8C9BC4",
"[. c #8E98C8",
"{. c #949DCB",
"}. c #919BC2",
"|. c #8BA8C7",
" X c #8DAACC",
".X c #94A3C6",
"XX c #9CA5C5",
"oX c #9DADCA",
"OX c #9DA5D1",
"+X c #9FA8D3",
"@X c #A3ACC3",
"#X c #A3AECC",
"$X c #A3ABD3",
"%X c #A8AFD5",
"&X c #AAB1C4",
"*X c #ABB3CC",
"=X c #A4B0CE",
"-X c #AAB2D4",
";X c #ACB4D8",
":X c #A8B5D5",
">X c #B0B7C7",
",X c #B2BACA",
"<X c #B4BBDC",
"1X c #B9BFD1",
"2X c #83CAF1",
"3X c #84D4FB",
"4X c #8FDDFA",
"5X c #8AD6F7",
"6X c #9AD3E1",
"7X c #97DEF2",
"8X c #95E2FB",
"9X c #9BE5FA",
"0X c #9EEBFC",
"qX c #96E9FE",
"wX c #B6C0D9",
"eX c #BCC4DD",
"rX c #BCC2D4",
"tX c #BCD3DC",
"yX c #BDC3E1",
"uX c #A4EBFB",
"iX c #A9EDFB",
"pX c #ABF4FC",
"aX c #ABFBFE",
"sX c #B2FBFD",
"dX c #BCFCFC",
"fX c #B2F6FC",
"gX c #C5CADB",
"hX c #C9CDDE",
"jX c #C2C7DC",
"kX c #CED2DD",
"lX c #C4CAE3",
"zX c #C8CCE4",
"xX c #C2C7E2",
"cX c #CCD1E5",
"vX c #CFD3E8",
"bX c #D3D7E7",
"nX c #D2D6E9",
"mX c #D5D9EA",
"MX c #D9DDEC",
"NX c #D5D8E4",
"BX c #C2FDFD",
"VX c #CBFDFD",
"CX c #DCE0EE",
"ZX c #DEE1F0",
"AX c #D3FDFD",
"SX c #DAFAFC",
"DX c #E0E3EF",
"FX c #E2E5F1",
"GX c #E6E9F2",
"HX c #EAECF5",
"JX c #EFF1F8",
"KX c #E4FDFD",
"LX c #F0F2F7",
"PX c #F2F3F9",
"IX c #F5F9FC",
"UX c #FCFCFE",
"YX c None",
/* pixels */
"YXYXYXYXYXYXYXYXYXYX6 6 e d z ^ ^ ~ g w , o YXYXYXYXYXYXYXYXYXYX",
"YXYXYXYXYXYXYXYX6 e / c.:XmXLXLXPXLXZXeX].#.7 X YXYXYXYXYXYXYXYX",
"YXYXYXYXYXYX; e ..#XHXUXUXUXIXIXIXUXUXUXUXUXzX7.>   YXYXYXYXYXYX",
"YXYXYXYXYX0 e k.HXUXPXLXHXHXFXHXJXLXLXLXJXJXUXUX:Xa X YXYXYXYXYX",
"YXYXYXYX% r ].JXJXHXHXHXGXGXFXHXHXHXHXHXHXHXHXHXIXlXz X YXYXYXYX",
"YXYXYXo y ).HXFXGXDXNXkXgXgXgXDXHXGXGXGXGXGXDXDXZXHX<Xf . YXYXYX",
"YXYXYX5 6.MXZXMXgX,X,X,X,X,X,XhXGXGXGXFXFXDXFXMXMXMXFX_.4   YXYX",
"YXYX- [ $XnXeX&X/././.@X#X#X=XMXFXbXFXFXFXzXbXMXmXnXmXyXX.& YXYX",
"YX  i f.;X#X~.~.~.}..X.X.X].wXGXjX&XhXrX,XrXmXbXnXvXvXxXn.i   YX",
"YX*  .6.E.W.Y.!.E.Q.Q.E.].wXCXFXFXFXbX1XzXmXmXnXvXcXzXyX_.*.& YX",
"YXu 4.*.=.j.j.z.z.z.c.Q.cXGXGXFXDXDXFXFXFXmXmXnXcXlXlX<X).f.7   ",
". ] 6.y f y.p.p.p.p.u.-XHXFXGXGXGXGXFXFXCXmXmXxXlXlXlX$X(.(.Q . ",
"& ( 8.W 4 ' 8.7.7.7.e.z.ZXHXGXHXHXHXGXFXCXmXnXyX*XzX<X[.'.`.@.$ ",
"- | `.`.p.&.+.%.=.=.=.#.x.HXUXUXIXHXGXFXCXmXnXcX@X*Xa.>.'.x.9.* ",
"- g._.[.OX$XQ.+.`  . .} } k.^.~./.oXB.N. X*XjXzXyX%Xh.$.^ #.9.: ",
"< f._.[.{.$X<XU.k f / / / ~ d O.b.V.C.3XC.2X.X*X<X3.+._ ' 4.) < ",
"< f.`.[.{.$X%XyX-Xk r E W E _ v.C.9XuX9X5X4X8XQ.a.7 7 ,.M.#.R < ",
"- g.`.[.{.OX%X<XR.s r t t t -.V.4XBXAXuXpX0XaX6Xb 0 ..~ Q p Y - ",
"$ 6.`.[.{.OX;X.X8 q p t t t e.C.0XAXSXiXdXsXdXdXo.3 :.5.#.W R % ",
". } `.[.[.OX%Xa.5 p t p t t r.3X4X9XiXdXVXVXVXAXL > <.+X[.f.d . ",
"YXu n.[.OXa.s R t t t t p t -.5X5X9XfXVXVXSXSXSXm , O.+X{.w.3 . ",
"YX& 6.[.'.l 1 t t p p t p p b Z.5X4XsXBXSXKXIXwXm z +.{.[.| &   ",
"YX  f _.u.g 7 t p p R E E Q z e.qXuXpXBXAXIXGXt.$.! W ' *.w   YX",
"YXYX& *.s.~ f i R E Q ~ ^ / / x 0.7XsXBXSXtXt.t.U I ` d Y &   YX",
"YXYX  2 w.@.~ ^ ^ ~ ^ ' ' ] } | _ m ;.>.o.v _ P S.D.D d 2   YXYX",
"YXYXYX. z ( ! } @.@. . .@.#.%.%.=.#.#.@. .} } H H.P.G.Z # YXYXYX",
"YXYXYXYXO f ( ' #.3.5.8.w.8.w.w.w.w.7.7.5.3.=.&.G J.P.D.C N N YX",
"YXYXYXYXYXO c | #.3.u.i.d.k.k.k.k.k.h.p.u.8.2. .[ B K.I.D.V V YX",
"YXYXYXYXYXYX  j #.6.i.c.l.T.!.T.T.x.l.k.i.7.4.] 9 . N J.L.A A YX",
"YXYXYXYXYXYXYX  @ n u.(._._.(.E.`.).(.c.d.=.l +   YXM N S F F YX",
"YXYXYXYXYXYXYXYXYX  + h K >.h.h.h.p.>.J h O     YXYXYXYXYXYXYXYX",
"YXYXYXYXYXYXYXYXYXYXYX      . . . .       YXYXYXYXYXYXYXYXYXYXYX"
};
